<svg width="156" height="156" viewBox="0 0 156 156" fill="none" xmlns="http://www.w3.org/2000/svg">
<circle cx="78" cy="78" r="72.5" stroke="#EC1E28" stroke-width="11"/>
<g clip-path="url(#clip0_62_124)">
<path d="M53.5 118.625C51.7812 118.625 50.375 117.219 50.375 115.5V40.5C50.375 38.7812 51.7812 37.375 53.5 37.375H84.75V53C84.75 56.457 87.543 59.25 91 59.25H106.625V115.5C106.625 117.219 105.219 118.625 103.5 118.625H53.5ZM53.5 28C46.6055 28 41 33.6055 41 40.5V115.5C41 122.395 46.6055 128 53.5 128H103.5C110.395 128 116 122.395 116 115.5V58.1758C116 54.8555 114.691 51.6719 112.348 49.3281L94.6523 31.6523C92.3086 29.3086 89.1445 28 85.8242 28H53.5ZM64.4375 78C61.8398 78 59.75 80.0898 59.75 82.6875C59.75 85.2852 61.8398 87.375 64.4375 87.375H92.5625C95.1602 87.375 97.25 85.2852 97.25 82.6875C97.25 80.0898 95.1602 78 92.5625 78H64.4375ZM64.4375 96.75C61.8398 96.75 59.75 98.8398 59.75 101.438C59.75 104.035 61.8398 106.125 64.4375 106.125H92.5625C95.1602 106.125 97.25 104.035 97.25 101.438C97.25 98.8398 95.1602 96.75 92.5625 96.75H64.4375Z" fill="#EC1E28"/>
</g>
<defs>
<clipPath id="clip0_62_124">
<rect width="75" height="100" fill="white" transform="translate(41 28)"/>
</clipPath>
</defs>
</svg>
