<svg width="156" height="156" viewBox="0 0 156 156" fill="none" xmlns="http://www.w3.org/2000/svg">
<path d="M58.3435 110.67H43.2058V62.7673H58.3435V110.67ZM50.7665 56.2329C45.927 56.2329 42 52.2931 42 47.5364C42 45.2512 42.9236 43.0596 44.5677 41.4437C46.2117 39.8278 48.4415 38.92 50.7665 38.92C53.0915 38.92 55.3213 39.8278 56.9654 41.4437C58.6094 43.0596 59.533 45.2512 59.533 47.5364C59.533 52.2931 55.606 56.2329 50.7665 56.2329ZM114.984 110.67H99.8786V87.3513C99.8786 81.7938 99.7645 74.6669 92.0083 74.6669C84.1379 74.6669 82.9321 80.7048 82.9321 86.9509V110.67H67.8107V62.7673H82.3292V69.3017H82.5411C84.5616 65.538 89.4989 61.5661 96.8641 61.5661C112.181 61.5661 115 71.4798 115 84.3563V110.67H114.984Z" fill="#EC1E28"/>
<circle cx="78" cy="78" r="72.5" stroke="#EC1E28" stroke-width="11"/>
</svg>
