<svg width="156" height="156" viewBox="0 0 156 156" fill="none" xmlns="http://www.w3.org/2000/svg">
<path d="M58.7992 111.141C58.7992 111.609 58.2613 111.984 57.5831 111.984C56.8113 112.055 56.2734 111.68 56.2734 111.141C56.2734 110.672 56.8113 110.297 57.4895 110.297C58.1911 110.227 58.7992 110.602 58.7992 111.141ZM51.5258 110.086C51.3621 110.555 51.8298 111.094 52.5315 111.234C53.1395 111.469 53.8411 111.234 53.9815 110.766C54.1218 110.297 53.6774 109.758 52.9758 109.547C52.3677 109.383 51.6895 109.617 51.5258 110.086ZM61.8629 109.688C61.1847 109.852 60.7169 110.297 60.7871 110.836C60.8573 111.305 61.4653 111.609 62.1669 111.445C62.8452 111.281 63.3129 110.836 63.2427 110.367C63.1726 109.922 62.5411 109.617 61.8629 109.688ZM77.2516 19.875C44.8137 19.875 20 44.5547 20 77.0625C20 103.055 36.3242 125.297 59.6411 133.125C62.6347 133.664 63.6871 131.812 63.6871 130.289C63.6871 128.836 63.6169 120.82 63.6169 115.898C63.6169 115.898 47.246 119.414 43.8081 108.914C43.8081 108.914 41.1419 102.094 37.3065 100.336C37.3065 100.336 31.9508 96.6562 37.6806 96.7266C37.6806 96.7266 43.504 97.1953 46.7081 102.773C51.8298 111.82 60.4129 109.219 63.7573 107.672C64.2952 103.922 65.8153 101.32 67.4992 99.7734C54.4258 98.3203 41.2355 96.4219 41.2355 73.875C41.2355 67.4297 43.0129 64.1953 46.7548 60.0703C46.1468 58.5469 44.1589 52.2656 47.3629 44.1562C52.2508 42.6328 63.5 50.4844 63.5 50.4844C68.1774 49.1719 73.2056 48.4922 78.1871 48.4922C83.1685 48.4922 88.1968 49.1719 92.8742 50.4844C92.8742 50.4844 104.123 42.6094 109.011 44.1562C112.215 52.2891 110.227 58.5469 109.619 60.0703C113.361 64.2188 115.653 67.4531 115.653 73.875C115.653 96.4922 101.878 98.2969 88.8048 99.7734C90.9565 101.625 92.7806 105.141 92.7806 110.648C92.7806 118.547 92.7105 128.32 92.7105 130.242C92.7105 131.766 93.7863 133.617 96.7565 133.078C120.144 125.297 136 103.055 136 77.0625C136 44.5547 109.69 19.875 77.2516 19.875ZM42.7323 100.711C42.4282 100.945 42.4984 101.484 42.896 101.93C43.2702 102.305 43.8081 102.469 44.1121 102.164C44.4161 101.93 44.346 101.391 43.9484 100.945C43.5742 100.57 43.0363 100.406 42.7323 100.711ZM40.2065 98.8125C40.0427 99.1172 40.2766 99.4922 40.7444 99.7266C41.1185 99.9609 41.5863 99.8906 41.75 99.5625C41.9137 99.2578 41.6798 98.8828 41.2121 98.6484C40.7444 98.5078 40.3702 98.5781 40.2065 98.8125ZM47.7839 107.156C47.4097 107.461 47.55 108.164 48.0879 108.609C48.6258 109.148 49.304 109.219 49.6081 108.844C49.9121 108.539 49.7718 107.836 49.304 107.391C48.7895 106.852 48.0879 106.781 47.7839 107.156ZM45.1177 103.711C44.7435 103.945 44.7435 104.555 45.1177 105.094C45.4919 105.633 46.1234 105.867 46.4274 105.633C46.8016 105.328 46.8016 104.719 46.4274 104.18C46.1 103.641 45.4919 103.406 45.1177 103.711Z" fill="#EC1E28"/>
<circle cx="78" cy="78" r="72.5" stroke="#EC1E28" stroke-width="11"/>
</svg>
