<svg width="156" height="156" viewBox="0 0 156 156" fill="none" xmlns="http://www.w3.org/2000/svg">
<circle cx="78" cy="78" r="72.5" stroke="#EC1E28" stroke-width="11"/>
<g clip-path="url(#clip0_60_135)">
<path d="M78.5 34.625C54.2773 34.625 34.625 54.2773 34.625 78.5C34.625 102.723 54.2773 122.375 78.5 122.375C82.5447 122.375 85.8125 125.643 85.8125 129.688C85.8125 133.732 82.5447 137 78.5 137C46.1879 137 20 110.812 20 78.5C20 46.1879 46.1879 20 78.5 20C110.812 20 137 46.1879 137 78.5V85.8125C137 97.9238 127.174 107.75 115.062 107.75C108.367 107.75 102.357 104.734 98.3352 100.003C93.125 104.802 86.1553 107.75 78.5 107.75C62.3439 107.75 49.25 94.6561 49.25 78.5C49.25 62.3439 62.3439 49.25 78.5 49.25C84.8756 49.25 90.7713 51.2838 95.5701 54.7572C96.8727 53.6147 98.5637 52.9062 100.438 52.9062C104.482 52.9062 107.75 56.174 107.75 60.2188V78.5V85.8125C107.75 89.8572 111.018 93.125 115.062 93.125C119.107 93.125 122.375 89.8572 122.375 85.8125V78.5C122.375 54.2773 102.723 34.625 78.5 34.625ZM93.125 78.5C93.125 74.6212 91.5842 70.9013 88.8414 68.1586C86.0987 65.4158 82.3788 63.875 78.5 63.875C74.6212 63.875 70.9013 65.4158 68.1586 68.1586C65.4158 70.9013 63.875 74.6212 63.875 78.5C63.875 82.3788 65.4158 86.0987 68.1586 88.8414C70.9013 91.5842 74.6212 93.125 78.5 93.125C82.3788 93.125 86.0987 91.5842 88.8414 88.8414C91.5842 86.0987 93.125 82.3788 93.125 78.5Z" fill="#EC1E28"/>
</g>
<defs>
<clipPath id="clip0_60_135">
<rect width="117" height="117" fill="white" transform="translate(20 20)"/>
</clipPath>
</defs>
</svg>
